<svg id="Capa_1" enable-background="new 0 0 512 512" height="512" viewBox="0 0 512 512" width="512" xmlns="http://www.w3.org/2000/svg"><g><path d="m494.253 296.389-19.015 8.908c-29.04 13.604-60.717 20.656-92.786 20.656h-211.744c-11.655 0-23.182-2.428-33.847-7.13l-108.229-47.712c-15.312-6.75-25.193-21.905-25.193-38.639v-9.423c0-12.766 10.349-23.115 23.115-23.115h369.251c34.978 0 68.752 12.77 94.979 35.912l10.786 9.517c6.631 5.851 10.43 14.269 10.43 23.113 0 11.959-6.918 22.839-17.747 27.913z" fill="#d6e0f4"/><path d="m498.712 272.919-19.015 8.908c-29.04 13.604-60.717 20.656-92.786 20.656h-211.744c-11.655 0-23.182-2.428-33.847-7.13l-108.228-47.711c-15.194-6.698-25.029-21.675-25.179-38.256-2.81 3.828-4.473 8.55-4.473 13.663v9.423c0 16.734 9.881 31.889 25.193 38.639l108.229 47.712c10.665 4.701 22.192 7.13 33.847 7.13h211.744c32.069 0 63.745-7.052 92.786-20.656l19.015-8.908c10.83-5.073 17.747-15.953 17.747-27.912 0-2.187-.234-4.347-.684-6.449-3.068 4.627-7.374 8.441-12.605 10.891z" fill="#b8c9ea"/><path d="m406.758 245.622 14.765 10.849c4.562 3.352 10.075 5.16 15.736 5.16h73.963c-1.423-6.245-4.765-11.954-9.653-16.267l-10.786-9.517c-1.763-1.555-3.562-3.06-5.391-4.521h-73.947c-7.646 0-10.849 9.768-4.687 14.296z" fill="#6a61b2"/><path d="m136.353 380.889h26.653c9.446 0 18.762-2.195 27.215-6.411l149.028-74.337c3.372-1.682 2.175-6.764-1.593-6.764h-132.347c-2.854 0-5.582 1.178-7.539 3.256l-67.057 71.196c-4.656 4.944-1.151 13.06 5.64 13.06z" fill="#e27f86"/><path d="m6.119 282.047h14.731c4.201 0 8.347-.95 12.129-2.78l51.061-24.705c6.717-3.25 4.402-13.347-3.059-13.347h-46.761c-3.723 0-7.264 1.608-9.714 4.411l-22.985 26.294c-3.452 3.949-.648 10.127 4.598 10.127z" fill="#e27f86"/><path d="m27.577 131.111h18.337c10.369 0 20.3 4.186 27.54 11.609l55.806 57.214h-80.298l-26.063-61.772c-1.412-3.347 1.045-7.051 4.678-7.051z" fill="#e27f86"/><g fill="#6a61b2"><path d="m319.13 245.053v2.85c0 7.581 6.146 13.727 13.727 13.727h14.551c7.581 0 13.727-6.146 13.727-13.727v-2.85c0-7.581-6.146-13.727-13.727-13.727h-14.551c-7.581 0-13.727 6.146-13.727 13.727z"/><path d="m236.853 245.053v2.85c0 7.581 6.146 13.727 13.727 13.727h14.551c7.581 0 13.727-6.146 13.727-13.727v-2.85c0-7.581-6.146-13.727-13.727-13.727h-14.551c-7.581 0-13.727 6.146-13.727 13.727z"/><path d="m154.576 245.053v2.85c0 7.581 6.146 13.727 13.727 13.727h14.551c7.581 0 13.727-6.146 13.727-13.727v-2.85c0-7.581-6.146-13.727-13.727-13.727h-14.551c-7.581 0-13.727 6.146-13.727 13.727z"/></g></g></svg>